<?xml version="1.0" standalone="no"?>
<!DOCTYPE svg PUBLIC "-//W3C//DTD SVG 20010904//EN"
 "http://www.w3.org/TR/2001/REC-SVG-20010904/DTD/svg10.dtd">
<svg version="1.0" xmlns="http://www.w3.org/2000/svg"
 width="1139.000000pt" height="1139.000000pt" viewBox="0 0 1139.000000 1139.000000"
 preserveAspectRatio="xMidYMid meet">
<metadata>
Created by potrace 1.11, written by Peter Selinger 2001-2013
</metadata>
<g transform="translate(0.000000,1139.000000) scale(0.100000,-0.100000)"
fill="#839FE3" stroke="none">
<path d="M7595 10319 c-514 -66 -1000 -304 -1365 -669 -371 -371 -607 -858
-671 -1385 -19 -159 -14 -446 10 -610 12 -77 24 -150 27 -162 6 -22 3 -23 -43
-23 -79 0 -363 29 -553 56 -1593 227 -3075 1047 -4114 2277 -83 97 -92 105
-105 90 -35 -45 -147 -298 -191 -431 -85 -259 -115 -454 -114 -742 0 -234 17
-369 69 -576 125 -490 408 -929 802 -1245 44 -35 93 -74 109 -86 l29 -22 -32
0 c-50 -1 -258 28 -363 50 -148 32 -348 102 -497 174 -75 36 -139 63 -142 60
-8 -9 17 -332 35 -429 159 -903 833 -1640 1706 -1865 68 -18 104 -31 92 -34
-54 -17 -232 -47 -333 -58 -139 -14 -471 -6 -591 15 -46 8 -86 14 -88 12 -7
-8 73 -209 134 -332 144 -295 372 -579 632 -786 381 -303 873 -489 1352 -511
l55 -2 -105 -76 c-722 -526 -1529 -826 -2415 -899 -238 -20 -768 -10 -897 16
-59 12 -21 -19 149 -121 201 -120 559 -303 769 -394 637 -275 1300 -444 2034
-518 249 -25 975 -25 1240 0 927 88 1706 310 2467 702 1039 535 1930 1381
2560 2430 524 873 854 1861 958 2868 23 228 38 585 31 763 l-7 160 101 77
c304 234 587 511 820 803 123 154 243 321 238 333 -1 5 -57 -13 -123 -41 -183
-75 -454 -163 -657 -213 -172 -42 -453 -95 -501 -95 -14 0 11 22 75 65 331
226 616 560 788 928 58 124 115 275 107 283 -3 4 -55 -21 -114 -54 -383 -212
-779 -366 -1206 -467 l-157 -38 -88 85 c-360 346 -819 567 -1322 634 -117 15
-481 17 -595 3z"/>
</g>
</svg>
